<svg width="24" height="24" fill="none" xmlns="http://www.w3.org/2000/svg"><path d="M2.5 12c0-4.478 0-6.718 1.391-8.109S7.521 2.5 12 2.5c4.478 0 6.718 0 8.109 1.391S21.5 7.521 21.5 12c0 4.478 0 6.718-1.391 8.109C18.717 21.5 16.479 21.5 12 21.5c-4.478 0-6.718 0-8.109-1.391C2.5 18.717 2.5 16.479 2.5 12z" stroke="#E4E9DD" stroke-width="1.5" stroke-linejoin="round"/><path d="M16.5 12a4.5 4.5 0 11-9 0 4.5 4.5 0 019 0z" stroke="#E4E9DD" stroke-width="1.5"/><path d="M17.508 6.5h-.01" stroke="#E4E9DD" stroke-width="2" stroke-linecap="round" stroke-linejoin="round"/></svg>